<?xml version="1.0" encoding="UTF-8" standalone="no"?>
<svg
   xmlns:dc="http://purl.org/dc/elements/1.1/"
   xmlns:cc="http://creativecommons.org/ns#"
   xmlns:rdf="http://www.w3.org/1999/02/22-rdf-syntax-ns#"
   xmlns:svg="http://www.w3.org/2000/svg"
   xmlns="http://www.w3.org/2000/svg"
   viewBox="0 0 712.23999 195.65334"
   height="195.65334"
   width="712.23999"
   xml:space="preserve"
   id="svg2"
   version="1.1"><metadata
     id="metadata8"><rdf:RDF><cc:Work
         rdf:about=""><dc:format>image/svg+xml</dc:format><dc:type
           rdf:resource="http://purl.org/dc/dcmitype/StillImage" /></cc:Work></rdf:RDF></metadata><defs
     id="defs6" /><g
     transform="matrix(1.3333333,0,0,-1.3333333,0,195.65333)"
     id="g10"><g
       transform="scale(0.1)"
       id="g12"><path
         id="path14"
         style="fill:#ffffff;fill-opacity:1;fill-rule:evenodd;stroke:none"
         d="M 1417.34,1.07813 H 0 V 1418.4 H 1417.34 V 1.07813" /><path
         id="path16"
         style="fill:#231f20;fill-opacity:1;fill-rule:nonzero;stroke:none"
         d="M 1417.34,1418.4 H 0 V 1.07813 H 1417.34 V 1418.4 Z m -15,-15 V 16.0781 H 15 V 1403.4 h 1387.34" /><path
         id="path18"
         style="fill:#ed1c24;fill-opacity:1;fill-rule:nonzero;stroke:none"
         d="M 58.6406,59.7109 H 1358.7 V 1359.77 H 58.6406 V 59.7109" /><path
         id="path20"
         style="fill:#ffffff;fill-opacity:1;fill-rule:evenodd;stroke:none"
         d="m 167.543,749.789 526.809,492.771 h 52.597 V 821.141 l 450.201,421.419 h 52.64 V 749.789 h -52.64 V 1169.21 L 746.949,749.789 H 694.352 V 1169.21 L 245.531,749.789 h -77.988 v 0" /><path
         id="path22"
         style="fill:none;stroke:#ffffff;stroke-width:0.28299999;stroke-linecap:butt;stroke-linejoin:miter;stroke-miterlimit:22.92560005;stroke-dasharray:none;stroke-opacity:1"
         d="m 167.543,749.789 526.809,492.771 h 52.597 V 821.141 l 450.201,421.419 h 52.64 V 749.789 h -52.64 V 1169.21 L 746.949,749.789 H 694.352 V 1169.21 L 245.531,749.789 h -77.988 z" /><path
         id="path24"
         style="fill:#ffffff;fill-opacity:1;fill-rule:evenodd;stroke:none"
         d="m 167.543,665.172 1082.247,0.199 V 612.43 H 746.949 V 167.68 H 694.352 V 612.43 H 167.543 v 52.742" /><path
         id="path26"
         style="fill:none;stroke:#ffffff;stroke-width:0.28299999;stroke-linecap:butt;stroke-linejoin:miter;stroke-miterlimit:22.92560005;stroke-dasharray:none;stroke-opacity:1"
         d="m 167.543,665.172 1082.247,0.199 V 612.43 H 746.949 V 167.68 H 694.352 V 612.43 H 167.543 Z" /><path
         id="path28"
         style="fill:#231f20;fill-opacity:1;fill-rule:evenodd;stroke:none"
         d="m 1676.72,600.164 h -120.84 v 24.129 h 265.29 V 600.164 H 1700.35 V 0 h -23.63 v 600.164 0" /><path
         id="path30"
         style="fill:#231f20;fill-opacity:1;fill-rule:evenodd;stroke:none"
         d="m 2270.09,0 175.42,356.352 -131.88,267.941 h 26.99 l 117.96,-240.465 118.01,240.465 h 26.96 L 2471.65,356.352 2646.74,0 H 2619.7 L 2458.58,328.648 2297.4,0 h -27.31" /><path
         id="path32"
         style="fill:#231f20;fill-opacity:1;fill-rule:evenodd;stroke:none"
         d="m 2748.9,624.293 h 23.55 V 368.32 h 235.28 v 255.973 h 23.64 V 0 h -23.64 V 344.18 H 2772.45 V 0 h -23.55 v 624.293 0" /><path
         id="path34"
         style="fill:#231f20;fill-opacity:1;fill-rule:evenodd;stroke:none"
         d="M 4083.92,0 3906.6,624.469 3729.28,0 h 25.04 L 3906.6,543.75 4058.88,0 h 25.04 v 0" /><path
         id="path36"
         style="fill:#231f20;fill-opacity:1;fill-rule:nonzero;stroke:none"
         d="m 3698.09,304.191 -0.3,-7.511 -0.32,-7.25 -0.55,-7.239 -0.74,-7.242 -0.93,-7.078 -0.99,-7.062 -1.22,-6.969 -1.41,-6.899 -1.48,-6.8 -1.69,-6.813 -1.88,-6.719 -2.04,-6.609 -2.19,-6.559 -2.3,-6.453 -2.56,-6.429 -2.61,-6.36 -2.87,-6.277 -3.01,-6.172 -3.1,-6.109 -3.35,-6.102 -3.43,-6.008 -3.62,-6 -3.82,-5.75 -3.96,-5.91 -4.09,-5.672 -4.32,-5.738 -4.41,-5.563 -4.61,-5.558 -4.79,-5.391 -4.89,-5.398 -5.1,-5.379 -5.24,-5.211 -5.28,-4.961 -5.38,-4.9414 -5.34,-4.6797 -5.48,-4.5 -5.51,-4.4297 -5.69,-4.25 -5.65,-4.0508 -5.77,-3.8867 -5.74,-3.7109 -5.88,-3.5508 -5.97,-3.3398 -6,-3.1719 -6.09,-3.1172 -6.08,-2.9023 -6.19,-2.7383 -6.3,-2.5703 -6.33,-2.3907 -6.47,-2.1914 -6.46,-2.0468 -6.6,-1.9297 -6.57,-1.6797 -6.6,-1.6016 -6.83,-1.3984 -6.79,-1.2422 -6.89,-1.0586 -6.93,-0.8906 -7.12,-0.7813 -7.06,-0.5273 -7.1,-0.4531 -7.24,-0.168 -7.35,-0.1914 -7.27,0.1914 -7.24,0.168 -7.16,0.4531 -7.1,0.5273 -7.01,0.7813 -6.94,0.8906 -6.95,1.0586 -6.78,1.2422 -6.76,1.3984 -6.68,1.6016 -6.7,1.6797 -6.47,1.9297 -6.49,2.0468 -6.4,2.1914 -6.33,2.3907 -6.23,2.5703 -6.22,2.7383 -6.17,2.9023 -6.06,3.1172 -6.06,3.1719 -5.87,3.3398 -5.9,3.5508 -5.82,3.7109 -5.74,3.8867 -5.66,4.0508 -5.62,4.25 -5.5,4.4297 -5.46,4.5 -5.49,4.6797 -5.3,4.9414 -5.32,4.961 -5.15,5.211 -5.14,5.379 -4.95,5.398 -4.72,5.391 -4.61,5.558 -4.49,5.563 -4.22,5.738 -4.18,5.672 -3.96,5.91 -3.76,5.75 -3.6,6 -3.5,6.008 -3.3,6.102 -3.21,6.109 -2.95,6.172 -2.77,6.277 -2.67,6.36 -2.55,6.429 -2.31,6.453 -2.14,6.559 -2.08,6.609 -1.81,6.719 -1.69,6.813 -1.6,6.8 -1.32,6.899 -1.23,6.969 -1.11,7.062 -0.83,7.078 -0.73,7.242 -0.61,7.239 -0.35,7.25 -0.26,7.511 -0.09,7.418 0.09,7.52 0.26,7.41 0.35,7.25 0.61,7.242 0.73,7.239 0.83,7.07 1.11,7.058 1.23,6.993 1.32,6.89 1.6,6.797 1.69,6.813 1.81,6.711 2.08,6.628 2.14,6.54 2.31,6.449 2.55,6.453 2.67,6.359 2.77,6.258 2.95,6.18 3.21,6.109 3.3,6.113 3.5,6 3.6,6.008 3.76,5.824 3.96,5.836 4.18,5.653 4.22,5.644 4.49,5.66 4.61,5.469 4.72,5.488 4.95,5.383 5.14,5.391 5.15,5.215 5.32,5.039 5.3,4.859 5.49,4.676 5.46,4.512 5.5,4.422 5.62,4.226 5.66,4.067 5.74,3.808 5.82,3.801 5.9,3.531 5.87,3.36 6.06,3.171 6.06,3.18 6.17,2.832 6.22,2.754 6.23,2.457 6.33,2.496 6.4,2.18 6.49,2.043 6.47,1.953 6.7,1.769 6.68,1.485 6.76,1.414 6.78,1.238 6.95,1.067 6.94,0.878 7.01,0.793 7.1,0.629 7.16,0.348 7.24,0.266 7.27,0.089 7.35,-0.089 7.24,-0.266 7.1,-0.348 7.06,-0.629 7.12,-0.793 6.93,-0.878 6.89,-1.067 6.79,-1.238 6.83,-1.414 6.6,-1.485 6.57,-1.769 6.6,-1.953 6.46,-2.043 6.47,-2.18 6.33,-2.406 6.3,-2.547 6.19,-2.754 6.08,-2.832 6.09,-3.18 6,-3.171 5.97,-3.36 5.88,-3.531 5.74,-3.801 5.77,-3.808 5.65,-4.067 5.69,-4.226 5.51,-4.422 5.48,-4.512 5.34,-4.676 5.38,-4.859 5.28,-5.039 5.24,-5.215 5.1,-5.391 4.89,-5.383 4.79,-5.488 4.61,-5.469 4.41,-5.66 4.32,-5.644 4.09,-5.653 3.96,-5.836 3.82,-5.824 3.62,-6.008 3.43,-6 3.35,-6.113 3.1,-6.109 3.01,-6.18 2.87,-6.258 2.61,-6.359 2.56,-6.453 2.3,-6.449 2.19,-6.54 2.04,-6.628 1.88,-6.711 1.69,-6.813 1.48,-6.797 1.41,-6.89 1.22,-6.993 0.99,-7.058 0.93,-7.07 0.74,-7.239 0.55,-7.242 0.32,-7.25 0.3,-7.41 0.1,-7.52 z m 22.75,23.5 -0.46,7.957 -0.62,7.852 -0.73,7.77 -0.92,7.781 -1.17,7.597 -1.31,7.602 -1.51,7.41 -1.66,7.449 -1.87,7.403 -1.95,7.168 -2.16,7.218 -2.32,7.172 -2.57,7.059 -2.74,6.891 -2.86,6.902 -3.02,6.816 -3.22,6.692 -3.4,6.64 -3.6,6.629 -3.73,6.531 -3.89,6.364 -4.11,6.363 -4.29,6.273 -4.45,6.18 -4.59,6.184 -4.76,6.008 -4.97,5.918 -5.11,5.921 -5.28,5.836 -5.51,5.653 -5.66,5.652 -5.61,5.387 -5.74,5.304 -5.87,5.036 -5.9,4.855 -6.02,4.774 -6.02,4.511 -6.08,4.332 -6.23,4.145 -6.3,4.062 -6.36,3.895 -6.46,3.625 -6.44,3.441 -6.63,3.348 -6.64,3.109 -6.71,2.903 -6.81,2.73 -6.86,2.649 -7.06,2.398 -6.97,2.121 -7.11,2.121 -7.18,1.86 -7.23,1.769 -7.36,1.402 -7.38,1.414 -7.45,1.149 -7.57,0.973 -7.6,0.796 -7.69,0.61 -7.77,0.449 -7.82,0.277 -7.95,0.067 -7.89,-0.067 -7.78,-0.277 -7.83,-0.449 -7.64,-0.61 -7.64,-0.796 -7.57,-0.973 -7.49,-1.149 -7.38,-1.414 -7.3,-1.402 -7.24,-1.769 -7.22,-1.86 -7.12,-2.121 -7,-2.121 -6.96,-2.398 -6.89,-2.649 -6.84,-2.73 -6.72,-2.903 -6.64,-3.109 -6.53,-3.348 -6.55,-3.441 -6.44,-3.625 -6.36,-3.895 -6.26,-4.062 -6.17,-4.145 -6.15,-4.332 -6.07,-4.511 -5.97,-4.774 -5.87,-4.855 -5.95,-5.036 -5.68,-5.304 -5.72,-5.387 -5.61,-5.652 -5.42,-5.653 -5.31,-5.836 -5.22,-5.921 -4.84,-5.918 -4.85,-6.008 -4.6,-6.184 -4.41,-6.18 -4.25,-6.273 -4.12,-6.363 -3.93,-6.364 -3.69,-6.531 -3.59,-6.629 -3.38,-6.64 -3.24,-6.692 -3.06,-6.816 -2.86,-6.902 -2.76,-6.891 -2.49,-7.059 -2.37,-7.172 -2.21,-7.218 -1.98,-7.168 -1.81,-7.403 -1.62,-7.339 -1.51,-7.52 -1.29,-7.602 -1.19,-7.597 -0.86,-7.781 -0.8,-7.77 -0.64,-7.852 -0.47,-7.957 -0.21,-7.941 -0.11,-8.141 0.11,-8.129 0.21,-7.949 0.47,-7.961 0.64,-7.84 0.8,-7.769 0.86,-7.711 1.19,-7.602 1.29,-7.687 1.51,-7.41 1.62,-7.422 1.81,-7.328 1.98,-7.242 2.21,-7.161 2.37,-7.168 2.49,-6.968 2.76,-6.992 2.86,-6.79 3.06,-6.808 3.24,-6.813 3.38,-6.609 3.59,-6.551 3.69,-6.449 3.93,-6.449 4.12,-6.27 4.25,-6.293 4.41,-6.168 4.6,-6.101 4.85,-6.02 4.97,-5.898 5.09,-5.93 5.31,-5.7304 5.42,-5.7422 5.66,-5.5703 5.67,-5.4062 5.8,-5.2031 5.83,-5.0274 5.87,-4.8633 5.97,-4.6679 6.07,-4.5313 6.15,-4.3281 6.17,-4.2305 6.26,-3.9609 6.39,-3.8086 6.41,-3.6289 6.55,-3.4414 6.53,-3.2696 6.64,-3.0898 6.8,-2.9102 6.76,-2.75 6.89,-2.6328 6.96,-2.3984 7,-2.2109 7.12,-2.0469 7.22,-1.85159 7.24,-1.66015 7.3,-1.60157 7.41,-1.23046 7.46,-1.23829 7.57,-0.8789 7.64,-0.80078 7.64,-0.621097 7.83,-0.4375 7.78,-0.2617192 L 3415.58,0 l 7.95,0.0898438 7.82,0.2617192 7.7,0.4375 7.76,0.621097 7.6,0.80078 7.57,0.8789 7.45,1.23829 7.38,1.23046 7.36,1.60157 7.23,1.66015 7.18,1.85159 7.11,2.0469 6.97,2.2109 6.99,2.3984 6.93,2.6328 6.81,2.75 6.71,2.9102 6.64,3.0898 6.59,3.2696 6.48,3.4414 6.46,3.6289 6.36,3.8086 6.3,3.9609 6.23,4.2305 6.04,4.3281 6.06,4.5313 6.02,4.6679 5.9,4.8633 5.87,5.0274 5.74,5.2031 5.61,5.4062 5.66,5.5703 5.51,5.7422 5.28,5.7304 5.11,5.93 4.97,5.898 4.76,6.02 4.59,6.101 4.45,6.168 4.29,6.293 4.11,6.27 3.89,6.449 3.73,6.449 3.6,6.551 3.4,6.609 3.22,6.813 3.02,6.808 2.86,6.79 2.74,6.992 2.57,6.968 2.32,7.168 2.16,7.161 1.95,7.242 1.87,7.328 1.66,7.422 1.51,7.41 1.31,7.687 1.17,7.602 0.92,7.711 0.73,7.769 0.62,7.84 0.46,7.961 0.3,7.949 0.09,8.129 -0.09,8.141 -0.3,7.941" /><path
         id="path38"
         style="fill:#231f20;fill-opacity:1;fill-rule:nonzero;stroke:none"
         d="m 4703.56,304.191 -0.29,-7.511 -0.33,-7.25 -0.55,-7.239 -0.74,-7.242 -0.94,-7.078 -0.99,-7.062 -1.22,-6.969 -1.41,-6.899 -1.48,-6.8 -1.68,-6.813 -1.87,-6.719 -2.09,-6.609 -2.16,-6.559 -2.29,-6.453 -2.57,-6.429 -2.58,-6.36 -2.89,-6.277 -3,-6.172 -3.12,-6.109 -3.32,-6.102 -3.45,-6.008 -3.64,-6 -3.8,-5.75 -3.96,-5.91 -4.11,-5.672 -4.29,-5.738 -4.42,-5.563 -4.64,-5.558 -4.76,-5.391 -4.92,-5.398 -5.1,-5.379 -5.21,-5.211 -5.28,-4.961 -5.37,-4.9414 -5.35,-4.6797 -5.51,-4.5 -5.5,-4.4297 -5.64,-4.25 -5.69,-4.0508 -5.78,-3.8867 -5.72,-3.7109 -5.89,-3.5508 -5.97,-3.3398 -6.02,-3.1719 -6.07,-3.1172 -6.09,-2.9023 -6.2,-2.7383 -6.3,-2.5703 -6.34,-2.3907 -6.44,-2.1914 -6.42,-2.0468 -6.66,-1.9297 -6.54,-1.6797 -6.59,-1.6016 -6.84,-1.3984 -6.79,-1.2422 -6.89,-1.0586 -6.95,-0.8906 -7.12,-0.7813 -7.05,-0.5273 -7.12,-0.4531 -7.24,-0.168 -7.32,-0.1914 -7.27,0.1914 -7.21,0.168 -7.19,0.4531 -7.09,0.5273 -7.04,0.7813 -6.92,0.8906 -6.93,1.0586 -6.82,1.2422 -6.75,1.3984 -6.68,1.6016 -6.66,1.6797 -6.52,1.9297 -6.5,2.0468 -6.38,2.1914 -6.3,2.3907 -6.25,2.5703 -6.25,2.7383 -6.15,2.9023 -6.05,3.1172 -6.05,3.1719 -5.92,3.3398 -5.84,3.5508 -5.83,3.7109 -5.73,3.8867 -5.67,4.0508 -5.68,4.25 -5.44,4.4297 -5.49,4.5 -5.45,4.6797 -5.33,4.9414 -5.31,4.961 -5.14,5.211 -5.14,5.379 -4.93,5.398 -4.74,5.391 -4.59,5.558 -4.5,5.563 -4.24,5.738 -4.18,5.672 -3.96,5.91 -3.75,5.75 -3.63,6 -3.5,6.008 -3.3,6.102 -3.17,6.109 -2.97,6.172 -2.8,6.277 -2.61,6.36 -2.56,6.429 -2.34,6.453 -2.16,6.559 -2.08,6.609 -1.81,6.719 -1.68,6.813 -1.57,6.8 -1.32,6.899 -1.29,6.969 -1.06,7.062 -0.85,7.078 -0.73,7.242 -0.6,7.239 -0.37,7.25 -0.22,7.511 -0.1,7.418 0.1,7.52 0.22,7.41 0.37,7.25 0.6,7.242 0.73,7.239 0.85,7.07 1.06,7.058 1.29,6.993 1.32,6.89 1.57,6.797 1.68,6.813 1.81,6.711 2.08,6.628 2.16,6.54 2.34,6.449 2.56,6.453 2.61,6.359 2.8,6.258 2.97,6.18 3.17,6.109 3.3,6.113 3.5,6 3.63,6.008 3.75,5.824 3.96,5.836 4.18,5.653 4.24,5.644 4.5,5.66 4.59,5.469 4.74,5.488 4.93,5.383 5.14,5.391 5.14,5.215 5.31,5.039 5.33,4.859 5.45,4.676 5.49,4.512 5.44,4.422 5.68,4.226 5.67,4.067 5.73,3.808 5.83,3.801 5.84,3.531 5.92,3.36 6.05,3.171 6.05,3.18 6.15,2.832 6.25,2.754 6.25,2.457 6.3,2.496 6.38,2.18 6.5,2.043 6.52,1.953 6.66,1.769 6.68,1.485 6.75,1.414 6.82,1.238 6.93,1.067 6.92,0.878 7.04,0.793 7.09,0.629 7.19,0.348 7.21,0.266 7.27,0.089 7.32,-0.089 7.24,-0.266 7.12,-0.348 7.05,-0.629 7.12,-0.793 6.95,-0.878 6.89,-1.067 6.79,-1.238 6.84,-1.414 6.59,-1.485 6.54,-1.769 6.66,-1.953 6.42,-2.043 6.44,-2.18 6.34,-2.406 6.3,-2.547 6.2,-2.754 6.09,-2.832 6.07,-3.18 6.02,-3.171 5.97,-3.36 5.89,-3.531 5.72,-3.801 5.78,-3.808 5.69,-4.067 5.64,-4.226 5.5,-4.422 5.51,-4.512 5.35,-4.676 5.37,-4.859 5.28,-5.039 5.21,-5.215 5.1,-5.391 4.92,-5.383 4.76,-5.488 4.64,-5.469 4.42,-5.66 4.29,-5.644 4.11,-5.653 3.96,-5.836 3.8,-5.824 3.64,-6.008 3.45,-6 3.32,-6.113 3.12,-6.109 3,-6.18 2.89,-6.258 2.58,-6.359 2.57,-6.453 2.29,-6.449 2.16,-6.54 2.09,-6.628 1.87,-6.711 1.68,-6.813 1.48,-6.797 1.41,-6.89 1.22,-6.993 0.99,-7.058 0.94,-7.07 0.74,-7.239 0.55,-7.242 0.33,-7.25 0.29,-7.41 0.09,-7.52 z m 22.74,23.5 -0.43,7.957 -0.64,7.852 -0.75,7.77 -0.93,7.781 -1.18,7.597 -1.3,7.602 -1.48,7.41 -1.65,7.449 -1.86,7.403 -1.99,7.168 -2.15,7.218 -2.3,7.172 -2.6,7.059 -2.71,6.891 -2.9,6.902 -3,6.816 -3.21,6.692 -3.41,6.64 -3.61,6.629 -3.71,6.531 -3.89,6.364 -4.09,6.363 -4.35,6.273 -4.41,6.18 -4.58,6.184 -4.79,6.008 -4.99,5.918 -5.1,5.921 -5.28,5.836 -5.47,5.653 -5.67,5.652 -5.64,5.387 -5.72,5.304 -5.86,5.036 -5.9,4.855 -6.02,4.774 -6.02,4.511 -6.08,4.332 -6.26,4.145 -6.27,4.062 -6.39,3.895 -6.43,3.625 -6.47,3.441 -6.6,3.348 -6.66,3.109 -6.67,2.903 -6.83,2.73 -6.89,2.649 -7.02,2.398 -7.01,2.121 -7.09,2.121 -7.17,1.86 -7.23,1.769 -7.38,1.402 -7.39,1.414 -7.45,1.149 -7.54,0.973 -7.63,0.796 -7.68,0.61 -7.76,0.449 -7.82,0.277 -7.94,0.067 -7.89,-0.067 -7.81,-0.277 -7.83,-0.449 -7.61,-0.61 -7.65,-0.796 -7.54,-0.973 -7.54,-1.149 -7.35,-1.414 -7.31,-1.402 -7.21,-1.769 -7.24,-1.86 -7.1,-2.121 -7.03,-2.121 -6.96,-2.398 -6.85,-2.649 -6.84,-2.73 -6.72,-2.903 -6.69,-3.109 -6.54,-3.348 -6.55,-3.441 -6.46,-3.625 -6.28,-3.895 -6.26,-4.062 -6.21,-4.145 -6.14,-4.332 -6.09,-4.511 -6,-4.774 -5.85,-4.855 -5.93,-5.036 -5.7,-5.304 -5.67,-5.387 -5.61,-5.652 -5.44,-5.653 -5.31,-5.836 -5.22,-5.921 -4.82,-5.918 -4.9,-6.008 -4.59,-6.184 -4.42,-6.18 -4.19,-6.273 -4.15,-6.363 -3.93,-6.364 -3.7,-6.531 -3.61,-6.629 -3.35,-6.64 -3.26,-6.692 -3.03,-6.816 -2.88,-6.902 -2.73,-6.891 -2.5,-7.059 -2.37,-7.172 -2.19,-7.218 -2.01,-7.168 -1.8,-7.403 -1.65,-7.339 -1.5,-7.52 -1.28,-7.602 -1.19,-7.597 -0.88,-7.781 -0.8,-7.77 -0.6,-7.852 -0.49,-7.957 -0.24,-7.941 -0.06,-8.141 0.06,-8.129 0.24,-7.949 0.49,-7.961 0.6,-7.84 0.8,-7.769 0.88,-7.711 1.19,-7.602 1.28,-7.687 1.5,-7.41 1.65,-7.422 1.8,-7.328 2.01,-7.242 2.19,-7.161 2.37,-7.168 2.5,-6.968 2.73,-6.992 2.88,-6.79 3.03,-6.808 3.26,-6.813 3.35,-6.609 3.61,-6.551 3.7,-6.449 3.93,-6.449 4.15,-6.27 4.19,-6.293 4.42,-6.168 4.59,-6.101 4.9,-6.02 4.93,-5.898 5.11,-5.93 5.31,-5.7304 5.44,-5.7422 5.65,-5.5703 5.63,-5.4062 5.83,-5.2031 5.8,-5.0274 5.85,-4.8633 6,-4.6679 6.09,-4.5313 6.14,-4.3281 6.21,-4.2305 6.26,-3.9609 6.34,-3.8086 6.4,-3.6289 6.55,-3.4414 6.54,-3.2696 6.69,-3.0898 6.73,-2.9102 6.83,-2.75 6.85,-2.6328 6.96,-2.3984 7.03,-2.2109 7.1,-2.0469 7.24,-1.85159 7.21,-1.66015 7.31,-1.60157 7.38,-1.23046 7.51,-1.23829 7.54,-0.8789 7.65,-0.80078 7.61,-0.621097 7.83,-0.4375 7.81,-0.2617192 L 4421.05,0 l 7.94,0.0898438 7.82,0.2617192 7.69,0.4375 7.75,0.621097 7.63,0.80078 7.54,0.8789 7.45,1.23829 7.39,1.23046 7.38,1.60157 7.23,1.66015 7.17,1.85159 7.09,2.0469 7.01,2.2109 6.96,2.3984 6.95,2.6328 6.83,2.75 6.67,2.9102 6.66,3.0898 6.57,3.2696 6.5,3.4414 6.43,3.6289 6.39,3.8086 6.27,3.9609 6.26,4.2305 6.05,4.3281 6.05,4.5313 6.02,4.6679 5.9,4.8633 5.86,5.0274 5.72,5.2031 5.64,5.4062 5.67,5.5703 5.47,5.7422 5.28,5.7304 5.1,5.93 4.99,5.898 4.79,6.02 4.58,6.101 4.41,6.168 4.35,6.293 4.09,6.27 3.89,6.449 3.71,6.449 3.61,6.551 3.41,6.609 3.21,6.813 3,6.808 2.9,6.79 2.71,6.992 2.6,6.968 2.3,7.168 2.15,7.161 1.99,7.242 1.86,7.328 1.65,7.422 1.48,7.41 1.3,7.687 1.18,7.602 0.93,7.711 0.75,7.769 0.64,7.84 0.43,7.961 0.31,7.949 0.07,8.129 -0.07,8.141 -0.31,7.941" /><path
         id="path40"
         style="fill:#231f20;fill-opacity:1;fill-rule:evenodd;stroke:none"
         d="m 4808.81,624.539 h 244.62 V 600.41 H 4832.45 V 0.238281 h -23.64 V 624.539 v 0" /><path
         id="path42"
         style="fill:#231f20;fill-opacity:1;fill-rule:evenodd;stroke:none"
         d="m 1923.33,623.797 h 244.6 V 599.625 H 1946.87 V 367.988 h 164.31 V 343.91 H 1946.87 V 24.0703 h 221.06 V 0 h -244.6 v 623.797 0" /><path
         id="path44"
         style="fill:#231f20;fill-opacity:1;fill-rule:evenodd;stroke:none"
         d="M 1555.88,716.848 H 5318.11 V 701.512 H 1555.88 v 15.336" /><path
         id="path46"
         style="fill:#231f20;fill-opacity:1;fill-rule:evenodd;stroke:none"
         d="M 5175.75,624.789 V 0 h -23.67 v 624.789 h 23.67 v 0" /><path
         id="path48"
         style="fill:#231f20;fill-opacity:1;fill-rule:nonzero;stroke:none"
         d="m 5175.75,673.102 h -23.67 v -23.653 h 23.67 v 23.653" /><path
         id="path50"
         style="fill:#231f20;fill-opacity:1;fill-rule:evenodd;stroke:none"
         d="M 5318.11,624.789 V 0 h -23.65 v 624.789 h 23.65 v 0" /><path
         id="path52"
         style="fill:#231f20;fill-opacity:1;fill-rule:nonzero;stroke:none"
         d="m 5294.46,673.102 h -23.67 v -23.653 h 23.67 v 23.653" /><path
         id="path54"
         style="fill:#231f20;fill-opacity:1;fill-rule:nonzero;stroke:none"
         d="m 5341.76,673.102 h -23.65 v -23.653 h 23.65 v 23.653" /><path
         id="path56"
         style="fill:#231f20;fill-opacity:1;fill-rule:evenodd;stroke:none"
         d="m 1555.88,1419.05 219.69,-419.062 219.65,419.062 V 794.289 h -22.71 V 1326.96 L 1775.57,952.672 1578.63,1326.96 V 794.289 h -22.75 v 624.761 0" /><path
         id="path58"
         style="fill:#231f20;fill-opacity:1;fill-rule:evenodd;stroke:none"
         d="m 2314.35,1418.09 h 244.59 v -24.16 h -221.07 v -231.66 h 164.33 v -24.06 H 2337.87 V 818.367 h 221.07 v -24.078 h -244.59 v 623.801 0" /><path
         id="path60"
         style="fill:#231f20;fill-opacity:1;fill-rule:evenodd;stroke:none"
         d="m 4141.42,1418.09 h 244.6 v -24.16 h -221.05 v -231.66 h 164.3 v -24.06 h -164.3 V 818.367 h 221.05 v -24.078 h -244.6 v 623.801 0" /><path
         id="path62"
         style="fill:#231f20;fill-opacity:1;fill-rule:evenodd;stroke:none"
         d="m 3822.28,794.289 h -25.05 L 3644.85,1338.41 3492.46,794.289 h -25.07 l 177.46,624.891 177.43,-624.891 v 0" /><path
         id="path64"
         style="fill:#231f20;fill-opacity:1;fill-rule:evenodd;stroke:none"
         d="M 5318.1,1419.09 V 794.289 h -23.61 v 624.801 h 23.61 v 0" /><path
         id="path66"
         style="fill:#231f20;fill-opacity:1;fill-rule:nonzero;stroke:none"
         d="m 5318.1,1467.41 h -23.61 v -23.66 h 23.61 v 23.66" /><path
         id="path68"
         style="fill:#231f20;fill-opacity:1;fill-rule:nonzero;stroke:none"
         d="m 3125.03,1018.81 -0.5,-10.24 -0.94,-10.05 -1.43,-9.899 -1.83,-9.691 -2.31,-9.52 -2.78,-9.351 -3.2,-9.172 -3.75,-8.996 -4.19,-8.899 -4.69,-8.719 -5.05,-8.472 -5.63,-8.352 -6.04,-8.199 -6.5,-8.012 -6.99,-7.746 -7.46,-7.73 -7.58,-7.211 -7.82,-6.68 -8.04,-6.25 -8.09,-5.683 -8.26,-5.344 -8.56,-4.801 -8.67,-4.277 -8.87,-3.817 -9,-3.304 -9.15,-2.942 -9.39,-2.305 -9.57,-1.957 -9.79,-1.421 -4.91,-0.54 c -4.73,-0.464 -9.6,-0.562 -42.69,-0.644 V 1229.7 c 31.31,0 37.01,-0.35 42.69,-0.88 l 9.87,-1.18 9.63,-1.67 9.48,-2.15 9.31,-2.57 9.07,-3.13 8.94,-3.55 4.38,-1.96 8.67,-4.27 8.56,-4.73 8.26,-5.24 8.09,-5.71 8.04,-6.22 7.82,-6.59 7.58,-7.21 7.46,-7.57 6.99,-7.84 6.5,-7.92 6.04,-8.18 5.63,-8.38 5.05,-8.54 4.69,-8.64 4.19,-8.81 3.75,-9.08 3.2,-9.16 2.78,-9.45 2.31,-9.61 1.83,-9.7 1.43,-10.06 0.94,-10.04 0.5,-10.45 z m 22.99,17.01 -0.28,5.78 -0.45,5.78 -0.54,5.7 -0.73,5.69 -0.86,5.62 -0.96,5.52 -1.11,5.51 -1.17,5.43 -1.31,5.35 -1.52,5.35 -1.59,5.25 -1.75,5.25 -1.82,5.16 -2.04,5.08 -2.09,5.07 -2.17,4.98 -2.42,4.98 -2.57,4.9 -2.58,4.81 -2.8,4.73 -2.94,4.71 -2.96,4.71 -3.12,4.63 -3.25,4.54 -3.43,4.46 -3.49,4.45 -3.67,4.45 -3.79,4.27 -3.86,4.27 -4.06,4.19 -4.15,4.18 -4.1,3.92 -4.27,3.91 -4.24,3.74 -4.37,3.56 -4.46,3.48 -4.36,3.38 -4.54,3.2 -4.56,3.02 -4.61,3.04 -4.72,2.84 -4.69,2.68 -4.78,2.49 -4.82,2.41 -4.85,2.31 -4.98,2.22 -5.04,1.97 -5.04,1.94 -5.06,1.79 -5.2,1.61 -5.22,1.5 -5.24,1.43 -5.35,1.24 -5.34,1.08 -5.43,0.98 -5.52,0.89 -5.47,0.7 -5.61,0.64 -5.66,0.44 c -4.66,0.17 -9.34,0.44 -39.66,0.53 v 36.03 105.61 h 167.82 v 23.85 h -191.1 V 818.539 795.445 l 20.26,-0.078 3.02,0.043 v 0.035 h 28.28 l 5.73,0.114 5.65,0.328 5.66,0.465 5.61,0.632 5.47,0.7 5.52,0.796 5.43,0.977 5.34,1.164 5.35,1.242 5.24,1.332 5.22,1.516 5.2,1.605 5.06,1.782 5.04,1.875 5,2.047 4.93,2.132 4.94,2.317 4.82,2.398 4.78,2.496 4.69,2.762 4.72,2.672 4.61,2.937 4.56,3.11 4.54,3.207 4.36,3.301 4.46,3.468 4.37,3.551 4.24,3.746 4.27,3.844 4.1,3.902 8.21,8.266 3.86,4.379 3.79,4.277 3.67,4.258 3.49,4.449 3.43,4.449 3.25,4.555 3.12,4.621 2.96,4.633 2.94,4.719 2.8,4.711 2.58,4.816 2.57,4.891 2.42,4.902 2.17,4.981 2.09,5.066 2.04,5.094 1.82,5.144 1.75,5.258 1.59,5.168 1.52,5.34 1.31,5.43 1.17,5.437 1.11,5.52 0.96,5.511 0.86,5.606 0.73,5.609 0.54,5.677 0.45,5.8 0.28,5.8 0.24,5.86 v 11.84 l -0.24,5.89" /><path
         id="path70"
         style="fill:#231f20;fill-opacity:1;fill-rule:nonzero;stroke:none"
         d="m 4793.42,818.238 h -64.32 v 337.912 h 64.32 v 0.16 c 88.14,-5.64 157.98,-79.1 157.98,-168.763 0,-89.649 -69.84,-163.113 -157.98,-169.309 z m 0,575.082 c 53.05,-5.98 94.39,-51.03 94.39,-105.59 0,-54.57 -41.34,-99.62 -94.39,-106.14 h -64.32 v 0.54 198.6 12.59 z m 47.55,-221.34 c 41.99,21.65 70.8,65.37 70.8,115.75 0,67.78 -52.07,123.59 -118.35,129.65 h -64.32 -6.25 -17.7 v -24.06 -9.24 -201.95 -1.33 -22.72 -1.22 -325.079 -13.543 -23.949 h 11.99 11.96 64.32 c 101.34,6.242 181.94,90.406 181.94,193.258 0,86.133 -56.53,159.253 -134.39,184.433" /></g></g></svg>